<svg width="627" height="512" viewBox="0 0 627 512" fill="none" xmlns="http://www.w3.org/2000/svg">
<path d="M313.386 9.64453H313.387C337.42 9.78368 361.344 21.9322 374.622 46.0723L375.246 47.2314L416.288 125.162C413.504 121.869 410.552 118.691 407.456 115.775C400.636 109.353 393.018 104.096 384.893 101.73C376.691 99.3421 368.052 99.9302 359.419 105.067C350.86 110.16 342.45 119.636 334.389 134.739L334.384 134.748L202.457 384.857V384.858C164.859 456.146 91.3756 501.12 10.9706 502.329L250.655 47.2295L250.656 47.2305C263.946 22.0105 288.685 9.4959 313.386 9.64453Z" stroke="#FF5622" stroke-width="4"/>
<path d="M621.129 506.35H619.129C537.493 506.35 462.482 461.435 423.939 389.472V389.473L419.3 380.812V380.812L311.611 179.72L311.108 178.781L311.605 177.841L330.539 142.016V142.015L334.392 134.738L334.395 134.732C342.456 119.629 350.867 110.153 359.426 105.061C368.059 99.9233 376.698 99.3352 384.9 101.724C393.025 104.09 400.642 109.347 407.462 115.769C414.296 122.204 420.436 129.911 425.595 137.338L425.661 137.433L425.716 137.535L576.23 418.616L576.237 418.628L620.676 503.011L620.808 503.251C620.816 503.266 620.822 503.277 620.826 503.284L621.129 503.769V506.35Z" stroke="#7143FE" stroke-width="4"/>
<path d="M313.371 319.901C348.845 319.901 377.602 348.658 377.602 384.132C377.602 419.606 348.845 448.363 313.371 448.363C277.897 448.363 249.141 419.605 249.141 384.132C249.141 348.658 277.898 319.902 313.371 319.901Z" stroke="#34A853" stroke-width="4"/>
</svg>
